<?xml version="1.0" encoding="UTF-8"?>
<svg version="1.1" baseProfile="full" style="fill-opacity: 1; color-interpolation: auto; stroke: black; text-rendering: auto; stroke-linecap: square; stroke-miterlimit: 10; stroke-opacity: 1; shape-rendering: auto; fill: black; stroke-dasharray: none; font-weight: normal; stroke-width: 1; font-family: 'Dialog'; font-style: normal; stroke-linejoin: miter; stroke-dashoffset: 0pt; image-rendering: auto;" xmlns="http://www.w3.org/2000/svg" xmlns:xlink="http://www.w3.org/1999/xlink" xmlns:ev="http://www.w3.org/2001/xml-events" width="80" height="202">
  <defs id="genericDefs"/>
<path d="M10 41l-10 -20 10 -20 25 0 10 20 -10 20 Z"                             style="fill: deepskyblue; stroke: darkgrey;" />
<path d="M10 41l-10 -20 10 -20 25 0 10 20 -10 20 Z" transform="translate(0,40)" style="fill: deepskyblue; stroke: darkgrey;" />
<path d="M10 41l-10 -20 10 -20 25 0 10 20 -10 20 Z" transform="translate(0,80)" style="fill: slategrey; stroke: darkgrey;" />
<path d="M10 41l-10 -20 10 -20 25 0 10 20 -10 20 Z" transform="translate(0,120)" style="fill: indianred; stroke: darkgrey;" />
<path d="M10 41l-10 -20 10 -20 25 0 10 20 -10 20 Z" transform="translate(0,160)" style="fill: indianred; stroke: darkgrey;" />

<path d="M10 41l-10 -20 10 -20 25 0 10 20 -10 20 Z" transform="translate(35,20)" style="fill: deepskyblue; stroke: darkgrey;" />
<path d="M10 41l-10 -20 10 -20 25 0 10 20 -10 20 Z" transform="translate(35,60)" style="fill: deepskyblue; stroke: darkgrey;" />
<path d="M10 41l-10 -20 10 -20 25 0 10 20 -10 20 Z" transform="translate(35,100)" style="fill: indianred; stroke: darkgrey;" />
<path d="M10 41l-10 -20 10 -20 25 0 10 20 -10 20 Z" transform="translate(35,140)" style="fill: indianred; stroke: darkgrey;" />

<!-- BATS -->
<g style="fill: darkturquoise; font-family: monospace; stroke: white;" transform="translate(23,14),scale(0.75)">
<path d="M 0 -8 l -8 16 16 0 Z" />
<circle cx="0" cy="-8" r="5" />
<circle cx="-8" cy="8" r="5" />
<circle cx="8" cy="8" r="5" />
</g>
<!-- BATS -->
<g style="fill: lightcoral; font-family: monospace; stroke: white;" transform="translate(23,187),scale(0.75)">
<path d="M 0 -8 l -8 16 16 0 Z" />
<circle cx="0" cy="-8" r="5" />
<circle cx="-8" cy="8" r="5" />
<circle cx="8" cy="8" r="5" />
</g>

<text x="10" y="35" style="fill: black; stroke: black; font-size:7px; stroke-width:0px" >Owned</text>
<text x="3" y="65" style="fill: black; stroke: black; font-size:7px; stroke-width:0px" >Controlled</text>
<text x="9" y="105" style="fill: black; stroke: black; font-size:7px; stroke-width:0px" >Neutral</text>
<text x="3" y="145" style="fill: black; stroke: black; font-size:7px; stroke-width:0px" >Controlled</text>
<text x="9" y="173" style="fill: black; stroke: black; font-size:7px; stroke-width:0px" >Owned</text>
<text x="38" y="45" style="fill: black; stroke: black; font-size:7px; stroke-width:0px" >Controlled</text>
<text x="38" y="85" style="fill: black; stroke: black; font-size:7px; stroke-width:0px" >Controlled</text>
<text x="38" y="125" style="fill: black; stroke: black; font-size:7px; stroke-width:0px" >Controlled</text>
<text x="38" y="165" style="fill: black; stroke: black; font-size:7px; stroke-width:0px" >Controlled</text>
</svg>
